<?xml version="1.0" ?>
<!-- Uploaded to: SVG Repo, www.svgrepo.com, Generator: SVG Repo Mixer Tools -->
<svg width="800px" height="800px" viewBox="0 0 512 512" id="Layer_1" version="1.1" xml:space="preserve" xmlns="http://www.w3.org/2000/svg" xmlns:xlink="http://www.w3.org/1999/xlink">
<style type="text/css">
	.st0{fill:#231F20;}
</style>
<g>
<path class="st0" d="M416.6,131.1h-37.5c0-0.3,0-0.6,0-0.9v-3c0-0.5,0-1-0.1-1.5c0.1-0.5,0.1-1,0.1-1.5v-3c0-0.5,0-1-0.1-1.5   c0.1-0.5,0.1-1,0.1-1.5v-3c0-5.5-4.5-10-10-10s-10,4.5-10,10v3c0,0.5,0,1,0.1,1.5c-0.1,0.5-0.1,1-0.1,1.5v3c0,0.5,0,1,0.1,1.5   c-0.1,0.5-0.1,1-0.1,1.5v3c0,0.3,0,0.6,0,0.9H266c0-0.3,0-0.6,0-0.9v-3c0-0.5,0-1-0.1-1.5c0.1-0.5,0.1-1,0.1-1.5v-3   c0-0.5,0-1-0.1-1.5c0.1-0.5,0.1-1,0.1-1.5v-3c0-5.5-4.5-10-10-10s-10,4.5-10,10v3c0,0.5,0,1,0.1,1.5c-0.1,0.5-0.1,1-0.1,1.5v3   c0,0.5,0,1,0.1,1.5c-0.1,0.5-0.1,1-0.1,1.5v3c0,0.3,0,0.6,0,0.9h-93.2c0-0.3,0-0.6,0-0.9v-3c0-0.5,0-1-0.1-1.5   c0.1-0.5,0.1-1,0.1-1.5v-3c0-0.5,0-1-0.1-1.5c0.1-0.5,0.1-1,0.1-1.5v-3c0-5.5-4.5-10-10-10s-10,4.5-10,10v3c0,0.5,0,1,0.1,1.5   c-0.1,0.5-0.1,1-0.1,1.5v3c0,0.5,0,1,0.1,1.5c-0.1,0.5-0.1,1-0.1,1.5v3c0,0.3,0,0.6,0,0.9H95.4c-16.5,0-30,13.5-30,30v14   c0,13,8.3,24.1,19.9,28.2v175.7c0,15.3,12.4,27.7,27.7,27.7H399c15.3,0,27.7-12.4,27.7-27.7V203.4c11.6-4.2,19.9-15.2,19.9-28.2   v-14C446.6,144.6,433.1,131.1,416.6,131.1z M85.4,161.1c0-5.5,4.5-10,10-10h37.4c0,0,0,0.1,0,0.1v3c0,5.5,4.5,10,10,10   s10-4.5,10-10v-3c0,0,0-0.1,0-0.1H246c0,0,0,0.1,0,0.1v3c0,5.5,4.5,10,10,10s10-4.5,10-10v-3c0,0,0-0.1,0-0.1h93.1c0,0,0,0.1,0,0.1   v3c0,5.5,4.5,10,10,10s10-4.5,10-10v-3c0,0,0-0.1,0-0.1h37.4c5.5,0,10,4.5,10,10v14c0,5.5-4.5,10-10,10H95.4c-5.5,0-10-4.5-10-10   V161.1z M399,386.8H113c-4.2,0-7.7-3.5-7.7-7.7V205.1h301.3v173.9C406.7,383.3,403.2,386.8,399,386.8z"/>
<path class="st0" d="M369,285.8H142.9c-5.5,0-10,4.5-10,10s4.5,10,10,10H369c5.5,0,10-4.5,10-10S374.6,285.8,369,285.8z"/>
<path class="st0" d="M369,342.5H142.9c-5.5,0-10,4.5-10,10s4.5,10,10,10H369c5.5,0,10-4.5,10-10S374.6,342.5,369,342.5z"/>
<path class="st0" d="M142.9,249.2h3c0.5,0,1,0,1.5-0.1c0.5,0.1,1,0.1,1.5,0.1h3c0.5,0,1,0,1.5-0.1c0.5,0.1,1,0.1,1.5,0.1h3   c0.5,0,1,0,1.5-0.1c0.5,0.1,1,0.1,1.5,0.1h3c0.5,0,1,0,1.5-0.1c0.5,0.1,1,0.1,1.5,0.1h3c0.5,0,1,0,1.5-0.1c0.5,0.1,1,0.1,1.5,0.1h3   c0.5,0,1,0,1.5-0.1c0.5,0.1,1,0.1,1.5,0.1h3c0.5,0,1,0,1.5-0.1c0.5,0.1,1,0.1,1.5,0.1h3c0.5,0,1,0,1.5-0.1c0.5,0.1,1,0.1,1.5,0.1h3   c0.5,0,1,0,1.5-0.1c0.5,0.1,1,0.1,1.5,0.1h3c0.5,0,1,0,1.5-0.1c0.5,0.1,1,0.1,1.5,0.1h3c0.5,0,1,0,1.5-0.1c0.5,0.1,1,0.1,1.5,0.1h3   c0.5,0,1,0,1.5-0.1c0.5,0.1,1,0.1,1.5,0.1h3c0.5,0,1,0,1.5-0.1c0.5,0.1,1,0.1,1.5,0.1h3c0.5,0,1,0,1.5-0.1c0.5,0.1,1,0.1,1.5,0.1h3   c0.5,0,1,0,1.5-0.1c0.5,0.1,1,0.1,1.5,0.1h3c0.5,0,1,0,1.5-0.1c0.5,0.1,1,0.1,1.5,0.1h3c0.5,0,1,0,1.5-0.1c0.5,0.1,1,0.1,1.5,0.1h3   c0.5,0,1,0,1.5-0.1c0.5,0.1,1,0.1,1.5,0.1h3c0.5,0,1,0,1.5-0.1c0.5,0.1,1,0.1,1.5,0.1h3c0.5,0,1,0,1.5-0.1c0.5,0.1,1,0.1,1.5,0.1h3   c0.5,0,1,0,1.5-0.1c0.5,0.1,1,0.1,1.5,0.1h3c0.5,0,1,0,1.5-0.1c0.5,0.1,1,0.1,1.5,0.1h3c0.5,0,1,0,1.5-0.1c0.5,0.1,1,0.1,1.5,0.1h3   c0.5,0,1,0,1.5-0.1c0.5,0.1,1,0.1,1.5,0.1h3c0.5,0,1,0,1.5-0.1c0.5,0.1,1,0.1,1.5,0.1h3c0.5,0,1,0,1.5-0.1c0.5,0.1,1,0.1,1.5,0.1h3   c0.5,0,1,0,1.5-0.1c0.5,0.1,1,0.1,1.5,0.1h3c0.5,0,1,0,1.5-0.1c0.5,0.1,1,0.1,1.5,0.1h3c0.5,0,1,0,1.5-0.1c0.5,0.1,1,0.1,1.5,0.1h3   c0.5,0,1,0,1.5-0.1c0.5,0.1,1,0.1,1.5,0.1h3c0.5,0,1,0,1.5-0.1c0.5,0.1,1,0.1,1.5,0.1h3c0.5,0,1,0,1.5-0.1c0.5,0.1,1,0.1,1.5,0.1h3   c0.5,0,1,0,1.5-0.1c0.5,0.1,1,0.1,1.5,0.1h3c0.5,0,1,0,1.5-0.1c0.5,0.1,1,0.1,1.5,0.1h3c0.5,0,1,0,1.5-0.1c0.5,0.1,1,0.1,1.5,0.1h3   c0.5,0,1,0,1.5-0.1c0.5,0.1,1,0.1,1.5,0.1h3c0.5,0,1,0,1.5-0.1c0.5,0.1,1,0.1,1.5,0.1h3c5.5,0,10-4.5,10-10s-4.5-10-10-10h-3   c-0.5,0-1,0-1.5,0.1c-0.5-0.1-1-0.1-1.5-0.1h-3c-0.5,0-1,0-1.5,0.1c-0.5-0.1-1-0.1-1.5-0.1h-3c-0.5,0-1,0-1.5,0.1   c-0.5-0.1-1-0.1-1.5-0.1h-3c-0.5,0-1,0-1.5,0.1c-0.5-0.1-1-0.1-1.5-0.1h-3c-0.5,0-1,0-1.5,0.1c-0.5-0.1-1-0.1-1.5-0.1h-3   c-0.5,0-1,0-1.5,0.1c-0.5-0.1-1-0.1-1.5-0.1h-3c-0.5,0-1,0-1.5,0.1c-0.5-0.1-1-0.1-1.5-0.1h-3c-0.5,0-1,0-1.5,0.1   c-0.5-0.1-1-0.1-1.5-0.1h-3c-0.5,0-1,0-1.5,0.1c-0.5-0.1-1-0.1-1.5-0.1h-3c-0.5,0-1,0-1.5,0.1c-0.5-0.1-1-0.1-1.5-0.1h-3   c-0.5,0-1,0-1.5,0.1c-0.5-0.1-1-0.1-1.5-0.1h-3c-0.5,0-1,0-1.5,0.1c-0.5-0.1-1-0.1-1.5-0.1h-3c-0.5,0-1,0-1.5,0.1   c-0.5-0.1-1-0.1-1.5-0.1h-3c-0.5,0-1,0-1.5,0.1c-0.5-0.1-1-0.1-1.5-0.1h-3c-0.5,0-1,0-1.5,0.1c-0.5-0.1-1-0.1-1.5-0.1h-3   c-0.5,0-1,0-1.5,0.1c-0.5-0.1-1-0.1-1.5-0.1h-3c-0.5,0-1,0-1.5,0.1c-0.5-0.1-1-0.1-1.5-0.1h-3c-0.5,0-1,0-1.5,0.1   c-0.5-0.1-1-0.1-1.5-0.1h-3c-0.5,0-1,0-1.5,0.1c-0.5-0.1-1-0.1-1.5-0.1h-3c-0.5,0-1,0-1.5,0.1c-0.5-0.1-1-0.1-1.5-0.1h-3   c-0.5,0-1,0-1.5,0.1c-0.5-0.1-1-0.1-1.5-0.1h-3c-0.5,0-1,0-1.5,0.1c-0.5-0.1-1-0.1-1.5-0.1h-3c-0.5,0-1,0-1.5,0.1   c-0.5-0.1-1-0.1-1.5-0.1h-3c-0.5,0-1,0-1.5,0.1c-0.5-0.1-1-0.1-1.5-0.1h-3c-0.5,0-1,0-1.5,0.1c-0.5-0.1-1-0.1-1.5-0.1h-3   c-0.5,0-1,0-1.5,0.1c-0.5-0.1-1-0.1-1.5-0.1h-3c-0.5,0-1,0-1.5,0.1c-0.5-0.1-1-0.1-1.5-0.1h-3c-0.5,0-1,0-1.5,0.1   c-0.5-0.1-1-0.1-1.5-0.1h-3c-0.5,0-1,0-1.5,0.1c-0.5-0.1-1-0.1-1.5-0.1h-3c-0.5,0-1,0-1.5,0.1c-0.5-0.1-1-0.1-1.5-0.1h-3   c-0.5,0-1,0-1.5,0.1c-0.5-0.1-1-0.1-1.5-0.1h-3c-0.5,0-1,0-1.5,0.1c-0.5-0.1-1-0.1-1.5-0.1h-3c-0.5,0-1,0-1.5,0.1   c-0.5-0.1-1-0.1-1.5-0.1h-3c-0.5,0-1,0-1.5,0.1c-0.5-0.1-1-0.1-1.5-0.1h-3c-0.5,0-1,0-1.5,0.1c-0.5-0.1-1-0.1-1.5-0.1h-3   c-0.5,0-1,0-1.5,0.1c-0.5-0.1-1-0.1-1.5-0.1h-3c-0.5,0-1,0-1.5,0.1c-0.5-0.1-1-0.1-1.5-0.1h-3c-5.5,0-10,4.5-10,10   S137.3,249.2,142.9,249.2z"/>
</g>
</svg>